<svg width="32" height="32" viewBox="0 0 32 32" fill="none" xmlns="http://www.w3.org/2000/svg">
<g clip-path="url(#clip0_5_19)">
<path fill-rule="evenodd" clip-rule="evenodd" d="M6.85042 0C5.03403 -1.33936e-07 3.292 0.721377 2.00737 2.00551C0.722743 3.28964 0.000697537 5.0314 0 6.84778V25.1156C0 26.9324 0.721738 28.6748 2.00644 29.9595C3.29114 31.2442 5.03357 31.966 6.85042 31.966H25.1182C26.9346 31.9653 28.6763 31.2432 29.9605 29.9586C31.2446 28.674 31.966 26.9319 31.966 25.1156V6.84778C31.9653 5.03185 31.2436 3.2905 29.9595 2.00644C28.6755 0.722382 26.9341 0.000697229 25.1182 0H6.85042ZM27.0886 6.85831C27.0886 7.38159 26.8807 7.88344 26.5107 8.25346C26.1407 8.62348 25.6388 8.83135 25.1156 8.83135C24.5923 8.83135 24.0904 8.62348 23.7204 8.25346C23.3504 7.88344 23.1425 7.38159 23.1425 6.85831C23.1425 6.33502 23.3504 5.83317 23.7204 5.46315C24.0904 5.09314 24.5923 4.88526 25.1156 4.88526C25.6388 4.88526 26.1407 5.09314 26.5107 5.46315C26.8807 5.83317 27.0886 6.33502 27.0886 6.85831ZM15.9869 10.5098C14.5357 10.5098 13.1439 11.0863 12.1177 12.1124C11.0915 13.1386 10.515 14.5304 10.515 15.9817C10.515 17.4329 11.0915 18.8247 12.1177 19.8509C13.1439 20.8771 14.5357 21.4536 15.9869 21.4536C17.4382 21.4536 18.83 20.8771 19.8562 19.8509C20.8823 18.8247 21.4588 17.4329 21.4588 15.9817C21.4588 14.5304 20.8823 13.1386 19.8562 12.1124C18.83 11.0863 17.4382 10.5098 15.9869 10.5098ZM7.88166 15.9817C7.88166 13.8327 8.73533 11.7718 10.2549 10.2522C11.7744 8.7327 13.8353 7.87903 15.9843 7.87903C18.1333 7.87903 20.1942 8.7327 21.7137 10.2522C23.2333 11.7718 24.0869 13.8327 24.0869 15.9817C24.0869 18.1306 23.2333 20.1916 21.7137 21.7111C20.1942 23.2306 18.1333 24.0843 15.9843 24.0843C13.8353 24.0843 11.7744 23.2306 10.2549 21.7111C8.73533 20.1916 7.88166 18.1306 7.88166 15.9817Z" fill="#EDEDED"/>
</g>
<defs>
<clipPath id="clip0_5_19">
<rect width="32" height="32" fill="white"/>
</clipPath>
</defs>
</svg>
