<svg width="32" height="32" viewBox="0 0 32 32" fill="none" xmlns="http://www.w3.org/2000/svg">
<g clip-path="url(#clip0_5_21)">
<path fill-rule="evenodd" clip-rule="evenodd" d="M0.35553 2.96952C0.35553 2.27623 0.630938 1.61134 1.12117 1.12111C1.61139 0.63088 2.27629 0.355472 2.96957 0.355472H29.0275C29.3711 0.354911 29.7114 0.422122 30.029 0.553256C30.3465 0.68439 30.6351 0.876873 30.8782 1.11968C31.1213 1.36249 31.3141 1.65087 31.4455 1.96829C31.577 2.28571 31.6446 2.62594 31.6444 2.96952V29.0275C31.6448 29.3711 31.5774 29.7115 31.4461 30.029C31.3148 30.3466 31.1222 30.6352 30.8793 30.8782C30.6364 31.1213 30.3479 31.3141 30.0304 31.4455C29.7129 31.577 29.3726 31.6445 29.0289 31.6444H2.96957C2.62617 31.6444 2.28614 31.5767 1.96889 31.4452C1.65165 31.3138 1.36342 31.1211 1.12066 30.8782C0.877908 30.6353 0.685389 30.347 0.554104 30.0297C0.42282 29.7124 0.355343 29.3723 0.35553 29.0289V2.96952ZM12.7402 12.2851H16.977V14.4127C17.5886 13.1896 19.153 12.0888 21.504 12.0888C26.011 12.0888 27.0791 14.5251 27.0791 18.9951V27.2753H22.518V20.0134C22.518 17.4676 21.9065 16.0312 20.3534 16.0312C18.1987 16.0312 17.3027 17.58 17.3027 20.0134V27.2753H12.7402V12.2851ZM4.91802 27.0804H9.48051V12.0888H4.91802V27.0804ZM10.1333 7.1992C10.1419 7.58985 10.0724 7.97828 9.92885 8.3417C9.7853 8.70511 9.57061 9.0362 9.29737 9.31552C9.02413 9.59484 8.69786 9.81677 8.33769 9.96828C7.97752 10.1198 7.59071 10.1978 7.19997 10.1978C6.80923 10.1978 6.42243 10.1198 6.06226 9.96828C5.70209 9.81677 5.37582 9.59484 5.10258 9.31552C4.82934 9.0362 4.61465 8.70511 4.4711 8.3417C4.32755 7.97828 4.25804 7.58985 4.26664 7.1992C4.28353 6.43242 4.59999 5.70273 5.14826 5.1664C5.69652 4.63008 6.433 4.32975 7.19997 4.32975C7.96695 4.32975 8.70343 4.63008 9.25169 5.1664C9.79996 5.70273 10.1164 6.43242 10.1333 7.1992Z" fill="#EDEDED"/>
</g>
<defs>
<clipPath id="clip0_5_21">
<rect width="32" height="32" fill="white"/>
</clipPath>
</defs>
</svg>
