<svg width="153" height="25" viewBox="0 0 153 25" fill="none" xmlns="http://www.w3.org/2000/svg">
<path d="M9.97601 1.34398V1.98398C9.29335 2.00531 8.77068 2.09064 8.40801 2.23998C8.06668 2.36798 7.84268 2.62398 7.73601 3.00798C7.62935 3.37064 7.57601 3.94664 7.57601 4.73598V20.608C7.57601 21.376 7.62935 21.952 7.73601 22.336C7.86401 22.72 8.09868 22.976 8.44001 23.104C8.78135 23.232 9.29335 23.3173 9.97601 23.36V24C9.40001 23.9573 8.67468 23.936 7.80001 23.936C6.92535 23.9146 6.04001 23.904 5.14401 23.904C4.09868 23.904 3.12801 23.9146 2.23201 23.936C1.35735 23.936 0.642679 23.9573 0.0880127 24V23.36C0.770679 23.3173 1.28268 23.232 1.62401 23.104C1.96535 22.976 2.18935 22.72 2.29601 22.336C2.42401 21.952 2.48801 21.376 2.48801 20.608V4.73598C2.48801 3.94664 2.42401 3.37064 2.29601 3.00798C2.18935 2.62398 1.95468 2.36798 1.59201 2.23998C1.25068 2.09064 0.749346 2.00531 0.0880127 1.98398V1.34398C0.642679 1.36531 1.35735 1.38664 2.23201 1.40798C3.12801 1.42931 4.09868 1.43998 5.14401 1.43998C6.04001 1.43998 6.92535 1.42931 7.80001 1.40798C8.67468 1.38664 9.40001 1.36531 9.97601 1.34398Z" fill="#EDEDED"/>
<path d="M20.1193 0.927979C21.3779 0.927979 22.3486 1.06665 23.0313 1.34398C23.7139 1.59998 24.3006 1.87731 24.7913 2.17598C25.0473 2.32531 25.2499 2.44265 25.3993 2.52798C25.5699 2.59198 25.7299 2.62398 25.8793 2.62398C26.0926 2.62398 26.2419 2.50664 26.3273 2.27198C26.4339 2.03731 26.5193 1.68531 26.5833 1.21598H27.3193C27.2979 1.62131 27.2659 2.11198 27.2233 2.68798C27.2019 3.24264 27.1806 3.97864 27.1593 4.89598C27.1593 5.81331 27.1593 7.01864 27.1593 8.51198H26.4233C26.3379 7.40265 26.0819 6.32531 25.6553 5.27998C25.2286 4.23465 24.6206 3.38131 23.8313 2.71998C23.0633 2.03731 22.1139 1.69598 20.9833 1.69598C19.9593 1.69598 19.1166 1.98398 18.4553 2.55998C17.7939 3.13598 17.4633 3.93598 17.4633 4.95998C17.4633 5.81331 17.6766 6.54931 18.1033 7.16798C18.5299 7.76531 19.1486 8.35198 19.9593 8.92798C20.7913 9.50398 21.7939 10.1973 22.9673 11.008C23.9913 11.6693 24.9086 12.3306 25.7193 12.992C26.5299 13.6533 27.1806 14.4 27.6713 15.232C28.1619 16.064 28.4073 17.056 28.4073 18.208C28.4073 19.616 28.0339 20.7786 27.2873 21.696C26.5619 22.6133 25.6019 23.3066 24.4073 23.776C23.2126 24.224 21.9006 24.448 20.4713 24.448C19.1486 24.448 18.0926 24.32 17.3033 24.064C16.5139 23.808 15.8526 23.5413 15.3193 23.264C14.8499 22.9653 14.4873 22.816 14.2313 22.816C14.0179 22.816 13.8579 22.9333 13.7513 23.168C13.6659 23.4026 13.5913 23.7546 13.5273 24.224H12.7913C12.8339 23.712 12.8553 23.1146 12.8553 22.432C12.8766 21.7493 12.8873 20.864 12.8873 19.776C12.9086 18.6666 12.9193 17.2693 12.9193 15.584H13.6553C13.7406 16.992 13.9753 18.3146 14.3593 19.552C14.7646 20.768 15.3726 21.7493 16.1833 22.496C17.0153 23.2426 18.1139 23.616 19.4793 23.616C20.2259 23.616 20.8873 23.488 21.4633 23.232C22.0606 22.9546 22.5406 22.5493 22.9033 22.016C23.2659 21.4826 23.4473 20.8213 23.4473 20.032C23.4473 19.136 23.2339 18.3573 22.8073 17.696C22.4019 17.0346 21.8366 16.416 21.1113 15.84C20.4073 15.264 19.5859 14.6773 18.6473 14.08C17.6446 13.4186 16.7059 12.7573 15.8313 12.096C14.9566 11.4346 14.2526 10.6773 13.7193 9.82398C13.2073 8.97065 12.9513 7.95731 12.9513 6.78398C12.9513 5.43998 13.2819 4.34131 13.9433 3.48798C14.6259 2.61331 15.5113 1.97331 16.5993 1.56798C17.7086 1.14131 18.8819 0.927979 20.1193 0.927979Z" fill="#EDEDED"/>
<path d="M41.0885 1.27998L48.8645 21.312C49.1632 22.08 49.4938 22.6133 49.8565 22.912C50.2405 23.1893 50.5818 23.3386 50.8805 23.36V24C50.2405 23.9573 49.4832 23.936 48.6085 23.936C47.7552 23.9146 46.8912 23.904 46.0165 23.904C45.0352 23.904 44.1072 23.9146 43.2325 23.936C42.3578 23.936 41.6645 23.9573 41.1525 24V23.36C42.2405 23.3173 42.9232 23.136 43.2005 22.816C43.4992 22.4746 43.4352 21.76 43.0085 20.672L37.5685 5.79198L38.1445 4.95998L33.2805 17.632C32.8112 18.8053 32.5232 19.7653 32.4165 20.512C32.3312 21.2586 32.3845 21.8346 32.5765 22.24C32.7898 22.6453 33.1205 22.9333 33.5685 23.104C34.0378 23.2533 34.5925 23.3386 35.2325 23.36V24C34.5285 23.9573 33.8565 23.936 33.2165 23.936C32.5765 23.9146 31.9258 23.904 31.2645 23.904C30.7952 23.904 30.3472 23.9146 29.9205 23.936C29.5152 23.936 29.1525 23.9573 28.8325 24V23.36C29.2805 23.2746 29.7392 22.9866 30.2085 22.496C30.6778 22.0053 31.1365 21.1733 31.5845 20L38.8805 1.27998C39.2218 1.30131 39.5845 1.31198 39.9685 1.31198C40.3738 1.31198 40.7472 1.30131 41.0885 1.27998ZM43.3285 14.784V15.424H33.7925L34.1125 14.784H43.3285Z" fill="#EDEDED"/>
<path d="M51.1193 1.34398C51.6739 1.36531 52.3993 1.38664 53.2953 1.40798C54.1913 1.42931 55.0873 1.43998 55.9833 1.43998C57.0073 1.43998 57.9993 1.42931 58.9593 1.40798C59.9193 1.38664 60.6019 1.37598 61.0073 1.37598C63.6526 1.37598 65.6259 1.84531 66.9273 2.78398C68.2499 3.72264 68.9113 4.92798 68.9113 6.39998C68.9113 7.14664 68.6873 7.90398 68.2393 8.67198C67.7913 9.43998 67.0979 10.1226 66.1593 10.72C65.2206 11.3173 64.0046 11.7546 62.5113 12.032V12.096C64.5166 12.2453 66.1059 12.608 67.2793 13.184C68.4526 13.76 69.2953 14.4533 69.8073 15.264C70.3193 16.0746 70.5753 16.9173 70.5753 17.792C70.5753 19.136 70.2233 20.2666 69.5193 21.184C68.8153 22.1013 67.8019 22.8053 66.4793 23.296C65.1566 23.7653 63.5779 24 61.7433 24C61.2313 24 60.4953 23.9893 59.5353 23.968C58.5753 23.9253 57.4126 23.904 56.0473 23.904C55.1086 23.904 54.1913 23.9146 53.2953 23.936C52.3993 23.936 51.6739 23.9573 51.1193 24V23.36C51.8019 23.3173 52.3139 23.232 52.6553 23.104C52.9966 22.976 53.2206 22.72 53.3273 22.336C53.4553 21.952 53.5193 21.376 53.5193 20.608V4.73598C53.5193 3.94664 53.4553 3.37064 53.3273 3.00798C53.2206 2.62398 52.9859 2.36798 52.6233 2.23998C52.2819 2.09064 51.7806 2.00531 51.1193 1.98398V1.34398ZM60.5913 1.98398C59.7593 1.98398 59.2153 2.16531 58.9593 2.52798C58.7246 2.89064 58.6073 3.62664 58.6073 4.73598V20.608C58.6073 21.3546 58.6606 21.92 58.7673 22.304C58.8953 22.688 59.1086 22.944 59.4073 23.072C59.7273 23.2 60.1966 23.264 60.8153 23.264C62.3513 23.264 63.4713 22.784 64.1753 21.824C64.9006 20.8426 65.2633 19.456 65.2633 17.664C65.2633 16.0213 64.8473 14.752 64.0153 13.856C63.2046 12.96 61.8499 12.512 59.9513 12.512H57.2313C57.2313 12.512 57.2313 12.4266 57.2313 12.256C57.2313 12.064 57.2313 11.968 57.2313 11.968H59.9833C60.9859 11.968 61.7539 11.7333 62.2873 11.264C62.8206 10.7733 63.1939 10.1333 63.4073 9.34398C63.6206 8.53331 63.7273 7.66931 63.7273 6.75198C63.7273 5.17331 63.4819 3.98931 62.9913 3.19998C62.5006 2.38931 61.7006 1.98398 60.5913 1.98398Z" fill="#EDEDED"/>
<path d="M89.6455 1.34398C89.5602 2.28264 89.4962 3.18931 89.4535 4.06398C89.4322 4.93865 89.4215 5.61065 89.4215 6.07998C89.4215 6.50665 89.4322 6.91198 89.4535 7.29598C89.4748 7.67998 89.4962 7.99998 89.5175 8.25598H88.7815C88.5682 6.69865 88.2375 5.47198 87.7895 4.57598C87.3415 3.65864 86.7548 3.01864 86.0295 2.65598C85.3255 2.27198 84.4935 2.07998 83.5335 2.07998H82.2215C81.6028 2.07998 81.1335 2.13331 80.8135 2.23998C80.4935 2.34665 80.2802 2.55998 80.1735 2.87998C80.0668 3.19998 80.0135 3.69064 80.0135 4.35198V20.992C80.0135 21.6533 80.0668 22.144 80.1735 22.464C80.2802 22.784 80.4935 22.9973 80.8135 23.104C81.1335 23.2106 81.6028 23.264 82.2215 23.264H83.7895C84.7495 23.264 85.5922 23.0613 86.3175 22.656C87.0642 22.2293 87.6935 21.5146 88.2055 20.512C88.7388 19.5093 89.1442 18.1546 89.4215 16.448H90.1575C90.0935 17.1306 90.0615 18.0266 90.0615 19.136C90.0615 19.6266 90.0722 20.32 90.0935 21.216C90.1148 22.112 90.1788 23.04 90.2855 24C89.1975 23.9573 87.9708 23.936 86.6055 23.936C85.2402 23.9146 84.0242 23.904 82.9575 23.904C82.4242 23.904 81.7415 23.904 80.9095 23.904C80.0775 23.904 79.1815 23.9146 78.2215 23.936C77.2615 23.936 76.2908 23.9466 75.3095 23.968C74.3282 23.968 73.4002 23.9786 72.5255 24V23.36C73.2082 23.3173 73.7202 23.232 74.0615 23.104C74.4028 22.976 74.6268 22.72 74.7335 22.336C74.8615 21.952 74.9255 21.376 74.9255 20.608V4.73598C74.9255 3.94664 74.8615 3.37064 74.7335 3.00798C74.6268 2.62398 74.3922 2.36798 74.0295 2.23998C73.6882 2.09064 73.1868 2.00531 72.5255 1.98398V1.34398C73.4002 1.36531 74.3282 1.38664 75.3095 1.40798C76.2908 1.40798 77.2615 1.41864 78.2215 1.43998C79.1815 1.43998 80.0775 1.43998 80.9095 1.43998C81.7415 1.43998 82.4242 1.43998 82.9575 1.43998C83.9388 1.43998 85.0482 1.43998 86.2855 1.43998C87.5442 1.41864 88.6642 1.38665 89.6455 1.34398ZM84.6535 12.288C84.6535 12.288 84.6535 12.3946 84.6535 12.608C84.6535 12.8213 84.6535 12.928 84.6535 12.928H79.0535C79.0535 12.928 79.0535 12.8213 79.0535 12.608C79.0535 12.3946 79.0535 12.288 79.0535 12.288H84.6535ZM85.5815 8.06398C85.4962 9.27998 85.4535 10.208 85.4535 10.848C85.4748 11.488 85.4855 12.0746 85.4855 12.608C85.4855 13.1413 85.4962 13.728 85.5175 14.368C85.5389 15.008 85.5922 15.936 85.6775 17.152H84.9415C84.8348 16.4053 84.6322 15.712 84.3335 15.072C84.0562 14.432 83.6508 13.92 83.1175 13.536C82.5842 13.1306 81.8908 12.928 81.0375 12.928V12.288C81.6775 12.288 82.2215 12.16 82.6695 11.904C83.1175 11.6266 83.4802 11.2746 83.7575 10.848C84.0562 10.4 84.2908 9.93065 84.4615 9.43998C84.6322 8.94931 84.7602 8.49065 84.8455 8.06398H85.5815Z" fill="#EDEDED"/>
<path d="M102.887 1.34398V1.98398C102.161 2.00531 101.607 2.09064 101.223 2.23998C100.86 2.36798 100.615 2.62398 100.487 3.00798C100.359 3.37064 100.295 3.94664 100.295 4.73598V20.992C100.295 21.6533 100.337 22.144 100.423 22.464C100.529 22.784 100.721 22.9973 100.999 23.104C101.297 23.2106 101.735 23.264 102.311 23.264H103.879C104.604 23.264 105.287 23.0933 105.927 22.752C106.567 22.4106 107.143 21.9306 107.655 21.312C108.167 20.672 108.593 19.9146 108.935 19.04C109.276 18.1653 109.532 17.1946 109.703 16.128H110.439C110.375 16.8533 110.343 17.792 110.343 18.944C110.343 19.4346 110.353 20.1493 110.375 21.088C110.396 22.0266 110.46 22.9973 110.567 24C109.479 23.9573 108.252 23.936 106.887 23.936C105.521 23.9146 104.305 23.904 103.239 23.904C102.705 23.904 102.023 23.904 101.191 23.904C100.359 23.904 99.4628 23.9146 98.5028 23.936C97.5428 23.936 96.5721 23.9466 95.5908 23.968C94.6094 23.968 93.6814 23.9786 92.8068 24V23.36C93.4894 23.3173 94.0014 23.232 94.3428 23.104C94.6841 22.976 94.9081 22.72 95.0148 22.336C95.1428 21.952 95.2068 21.376 95.2068 20.608V4.73598C95.2068 3.94664 95.1428 3.37064 95.0148 3.00798C94.9081 2.62398 94.6734 2.36798 94.3108 2.23998C93.9694 2.09064 93.4681 2.00531 92.8068 1.98398V1.34398C93.3401 1.36531 94.0548 1.38664 94.9508 1.40798C95.8681 1.42931 96.8388 1.43998 97.8628 1.43998C98.8014 1.43998 99.7188 1.42931 100.615 1.40798C101.532 1.38664 102.289 1.36531 102.887 1.34398Z" fill="#EDEDED"/>
<path d="M122.449 1.34398V1.98398C121.724 2.00531 121.169 2.09064 120.785 2.23998C120.423 2.36798 120.177 2.62398 120.049 3.00798C119.921 3.37064 119.857 3.94664 119.857 4.73598V20.992C119.857 21.6533 119.9 22.144 119.985 22.464C120.092 22.784 120.284 22.9973 120.561 23.104C120.86 23.2106 121.297 23.264 121.873 23.264H123.441C124.167 23.264 124.849 23.0933 125.489 22.752C126.129 22.4106 126.705 21.9306 127.217 21.312C127.729 20.672 128.156 19.9146 128.497 19.04C128.839 18.1653 129.095 17.1946 129.265 16.128H130.001C129.937 16.8533 129.905 17.792 129.905 18.944C129.905 19.4346 129.916 20.1493 129.937 21.088C129.959 22.0266 130.023 22.9973 130.129 24C129.041 23.9573 127.815 23.936 126.449 23.936C125.084 23.9146 123.868 23.904 122.801 23.904C122.268 23.904 121.585 23.904 120.753 23.904C119.921 23.904 119.025 23.9146 118.065 23.936C117.105 23.936 116.135 23.9466 115.153 23.968C114.172 23.968 113.244 23.9786 112.369 24V23.36C113.052 23.3173 113.564 23.232 113.905 23.104C114.247 22.976 114.471 22.72 114.577 22.336C114.705 21.952 114.769 21.376 114.769 20.608V4.73598C114.769 3.94664 114.705 3.37064 114.577 3.00798C114.471 2.62398 114.236 2.36798 113.873 2.23998C113.532 2.09064 113.031 2.00531 112.369 1.98398V1.34398C112.903 1.36531 113.617 1.38664 114.513 1.40798C115.431 1.42931 116.401 1.43998 117.425 1.43998C118.364 1.43998 119.281 1.42931 120.177 1.40798C121.095 1.38664 121.852 1.36531 122.449 1.34398Z" fill="#EDEDED"/>
<path d="M142.62 1.27998L150.396 21.312C150.694 22.08 151.025 22.6133 151.388 22.912C151.772 23.1893 152.113 23.3386 152.412 23.36V24C151.772 23.9573 151.014 23.936 150.14 23.936C149.286 23.9146 148.422 23.904 147.548 23.904C146.566 23.904 145.638 23.9146 144.764 23.936C143.889 23.936 143.196 23.9573 142.684 24V23.36C143.772 23.3173 144.454 23.136 144.732 22.816C145.03 22.4746 144.966 21.76 144.54 20.672L139.1 5.79198L139.676 4.95998L134.812 17.632C134.342 18.8053 134.054 19.7653 133.948 20.512C133.862 21.2586 133.916 21.8346 134.108 22.24C134.321 22.6453 134.652 22.9333 135.1 23.104C135.569 23.2533 136.124 23.3386 136.764 23.36V24C136.06 23.9573 135.388 23.936 134.748 23.936C134.108 23.9146 133.457 23.904 132.796 23.904C132.326 23.904 131.878 23.9146 131.452 23.936C131.046 23.936 130.684 23.9573 130.364 24V23.36C130.812 23.2746 131.27 22.9866 131.74 22.496C132.209 22.0053 132.668 21.1733 133.116 20L140.412 1.27998C140.753 1.30131 141.116 1.31198 141.5 1.31198C141.905 1.31198 142.278 1.30131 142.62 1.27998ZM144.86 14.784V15.424H135.324L135.644 14.784H144.86Z" fill="#EDEDED"/>
</svg>
