<svg width="32" height="32" viewBox="0 0 32 32" fill="none" xmlns="http://www.w3.org/2000/svg">
<g clip-path="url(#clip0_5_30)">
<path d="M31.984 7.2752C31.9707 6.58876 31.9156 5.90376 31.8192 5.224C31.7043 4.61936 31.5089 4.03283 31.2384 3.48C30.6462 2.31088 29.6968 1.36092 28.528 0.768C27.9787 0.49874 27.396 0.303956 26.7952 0.1888C26.1102 0.0903721 25.4199 0.0342657 24.728 0.0208C24.4352 0.00960002 24.056 0.00480003 23.88 0.00480003L8.1232 0C7.9472 0 7.568 0.00479998 7.2752 0.016C6.58875 0.0292266 5.90375 0.0842617 5.224 0.1808C4.61936 0.295744 4.03283 0.491077 3.48 0.7616C2.31095 1.35392 1.36101 2.3033 0.768 3.472C0.498811 4.0213 0.304029 4.60403 0.1888 5.2048C0.0899252 5.88974 0.033285 6.58011 0.0192001 7.272C0.00960013 7.5648 0.00320015 7.944 0.00320015 8.12L0 23.8768C0 24.0528 0.00479998 24.432 0.016 24.7248C0.0292266 25.4112 0.0842617 26.0962 0.1808 26.776C0.295762 27.3806 0.491095 27.9672 0.7616 28.52C1.35392 29.6891 2.3033 30.639 3.472 31.232C4.02132 31.5012 4.60404 31.6959 5.2048 31.8112C5.88976 31.9096 6.58014 31.9657 7.272 31.9792C7.5648 31.9904 7.944 31.9952 8.12 31.9952L23.8768 31.9984C24.0528 31.9984 24.432 31.9936 24.7248 31.9824C25.4112 31.9691 26.0962 31.9141 26.776 31.8176C27.3806 31.7026 27.9671 31.5073 28.52 31.2368C29.6896 30.6448 30.6402 29.6953 31.2336 28.5264C31.5028 27.9771 31.6976 27.3944 31.8128 26.7936C31.9117 26.1087 31.9684 25.4183 31.9824 24.7264C31.992 24.4336 31.9984 24.0544 31.9984 23.8784L32 8.1232C32 7.9472 31.9952 7.568 31.984 7.2752ZM16.3472 27.1312H16.3424C14.4379 27.1308 12.5638 26.6534 10.8912 25.7424L4.8432 27.328L6.4624 21.4192C5.20873 19.2437 4.7078 16.7154 5.03728 14.2262C5.36676 11.7371 6.50825 9.42613 8.28476 7.65173C10.0613 5.87733 12.3736 4.73859 14.8631 4.41207C17.3527 4.08555 19.8804 4.58949 22.0544 5.84575C24.2284 7.10201 25.9272 9.04041 26.8874 11.3604C27.8477 13.6804 28.0157 16.2524 27.3654 18.6776C26.7152 21.1028 25.283 23.2458 23.2909 24.7742C21.2988 26.3026 18.8581 27.1311 16.3472 27.1312Z" fill="#EDEDED"/>
<path d="M16.352 6.24135C14.6577 6.24085 12.9943 6.69427 11.5346 7.55445C10.0749 8.41462 8.87238 9.65015 8.05197 11.1325C7.23156 12.6149 6.82328 14.29 6.86957 15.9837C6.91586 17.6773 7.41504 19.3276 8.3152 20.7629L8.5408 21.1213L7.5824 24.6189L11.1712 23.6781L11.5168 23.8829C12.9777 24.7482 14.6445 25.2046 16.3424 25.2045H16.3472C18.8621 25.205 21.2741 24.2063 23.0527 22.4283C24.8313 20.6504 25.8308 18.2386 25.8312 15.7237C25.8316 13.2089 24.833 10.7968 23.055 9.01821C21.277 7.23961 18.8653 6.24017 16.3504 6.23975L16.352 6.24135ZM21.9264 19.7933C21.7167 20.1397 21.4375 20.4389 21.1066 20.6721C20.7756 20.9054 20.3999 21.0676 20.0032 21.1485C19.4042 21.2513 18.7896 21.2129 18.208 21.0365C17.6565 20.8647 17.1144 20.6639 16.584 20.4349C14.6156 19.4471 12.9378 17.9645 11.7152 16.1325C11.0483 15.2845 10.6435 14.2602 10.5504 13.1853C10.5427 12.7417 10.6275 12.3013 10.7994 11.8922C10.9713 11.4831 11.2265 11.1144 11.5488 10.8093C11.644 10.7007 11.7607 10.6129 11.8915 10.5515C12.0223 10.4901 12.1644 10.4564 12.3088 10.4525C12.4976 10.4525 12.688 10.4525 12.8544 10.4621C13.0304 10.4701 13.264 10.3949 13.4944 10.9517C13.7344 11.5213 14.304 12.9245 14.3744 13.0669C14.4196 13.1416 14.4455 13.2263 14.4496 13.3135C14.4538 13.4007 14.4362 13.4875 14.3984 13.5661C14.3266 13.7373 14.2307 13.8973 14.1136 14.0413C13.9696 14.2077 13.8144 14.4125 13.6864 14.5405C13.5424 14.6829 13.3952 14.8365 13.56 15.1213C13.988 15.8542 14.5224 16.5196 15.1456 17.0957C15.8218 17.6969 16.5977 18.1756 17.4384 18.5101C17.7232 18.6541 17.8896 18.6285 18.056 18.4381C18.2224 18.2477 18.768 17.6061 18.9584 17.3213C19.1488 17.0365 19.3376 17.0845 19.5984 17.1789C19.8592 17.2733 21.2624 17.9629 21.5472 18.1069C21.832 18.2509 22.0224 18.3197 22.0928 18.4381C22.1708 18.8964 22.113 19.3675 21.9264 19.7933Z" fill="#EDEDED"/>
</g>
<defs>
<clipPath id="clip0_5_30">
<rect width="32" height="32" fill="white"/>
</clipPath>
</defs>
</svg>
